<?xml version="1.0" standalone="no"?>
<!DOCTYPE svg PUBLIC "-//W3C//DTD SVG 20010904//EN"
 "http://www.w3.org/TR/2001/REC-SVG-20010904/DTD/svg10.dtd">
<svg version="1.0" xmlns="http://www.w3.org/2000/svg"
 width="150.000000pt" height="150.000000pt" viewBox="0 0 150.000000 150.000000"
 preserveAspectRatio="xMidYMid meet">

<g transform="translate(0.000000,150.000000) scale(0.100000,-0.100000)"
fill="#000000" stroke="none">
<path d="M251 1426 c30 -28 59 -92 59 -130 0 -3 -65 -6 -145 -6 -110 0 -145
-3 -145 -13 0 -6 49 -120 109 -252 l108 -240 93 -5 93 -5 14 -54 c24 -95 64
-141 158 -181 l45 -19 0 -81 0 -80 -120 0 -120 0 0 -134 0 -134 -52 -33 -53
-34 233 -3 c127 -1 337 -1 464 0 l233 3 -53 34 -52 33 0 134 0 134 -120 0
-120 0 0 79 0 79 67 34 c79 39 119 89 137 170 l12 53 94 5 93 5 108 240 c60
132 109 246 109 252 0 10 -35 13 -146 13 -134 0 -145 1 -140 18 3 9 8 31 12
47 3 17 23 47 42 68 l36 37 -544 0 -545 -1 36 -33z m816 -60 c2 -2 -190 -472
-304 -744 -7 -16 -46 -15 -90 3 -77 32 -100 72 -136 235 -24 108 -97 493 -97
513 0 7 618 0 627 -7z m-733 -183 c6 -24 66 -300 66 -308 0 -3 -23 -5 -52 -3
l-52 3 -68 150 c-37 83 -68 156 -68 163 0 9 23 12 84 12 72 0 85 -3 90 -17z
m1026 5 c0 -7 -31 -80 -68 -163 l-68 -150 -52 -3 c-29 -2 -52 -1 -52 3 0 4 47
223 65 303 5 21 10 22 90 22 62 0 85 -3 85 -12z m-550 -692 c0 -3 -12 -32 -26
-65 -25 -57 -29 -61 -60 -61 l-34 0 0 65 0 65 60 0 c33 0 60 -2 60 -4z m90
-224 c0 -2 -32 -41 -71 -88 l-72 -85 -136 3 -136 3 -3 74 c-2 41 0 81 3 89 4
12 38 13 210 11 113 -2 205 -5 205 -7z"/>
</g>
</svg>
