<?xml version="1.0" encoding="UTF-8"?>
<svg version="1.1" xmlns="http://www.w3.org/2000/svg" width="2000" height="2000">
<path d="M0 0 C0.99 0 1.98 0 3 0 C3 168.3 3 336.6 3 510 C-29.01 510 -61.02 510 -94 510 C-94.33 419.25 -94.66 328.5 -95 235 C-98.96 238.96 -98.96 238.96 -103 243 C-103.66 243 -104.32 243 -105 243 C-105 243.66 -105 244.32 -105 245 C-105.66 245 -106.32 245 -107 245 C-107 245.66 -107 246.32 -107 247 C-108.375 248.625 -108.375 248.625 -110 250 C-110.66 250 -111.32 250 -112 250 C-112 250.66 -112 251.32 -112 252 C-112.66 252 -113.32 252 -114 252 C-114 252.66 -114 253.32 -114 254 C-115.609375 255.5859375 -115.609375 255.5859375 -117.75 257.375 C-120.06903702 259.33757727 -122.25219284 261.2588295 -124.375 263.4375 C-126 265 -126 265 -128 265 C-128 265.66 -128 266.32 -128 267 C-129.2578125 268.234375 -129.2578125 268.234375 -131.125 269.75 C-136.14614063 273.98545856 -140.68706489 278.65929058 -145.25048828 283.37597656 C-145.83556152 283.97249023 -146.42063477 284.56900391 -147.0234375 285.18359375 C-147.54856934 285.72556396 -148.07370117 286.26753418 -148.61474609 286.82592773 C-150 288 -150 288 -152 288 C-152 288.66 -152 289.32 -152 290 C-153.29296875 291.26953125 -153.29296875 291.26953125 -155.1875 292.8125 C-159.95590259 296.83610721 -164.27798618 301.24599605 -168.60620117 305.73168945 C-170.03482136 307.19058334 -171.51364992 308.5999677 -173 310 C-173.66 310 -174.32 310 -175 310 C-175 310.66 -175 311.32 -175 312 C-175.66 312 -176.32 312 -177 312 C-177 312.66 -177 313.32 -177 314 C-178.29296875 315.26953125 -178.29296875 315.26953125 -180.1875 316.8125 C-186.49522879 322.15418024 -192.20009963 328.12052783 -198 334 C-201.18706942 332.56438314 -203.62169105 330.79733671 -206.25 328.5 C-206.95640625 327.8915625 -207.6628125 327.283125 -208.390625 326.65625 C-210 325 -210 325 -210 323 C-210.66 323 -211.32 323 -212 323 C-214.625 320.625 -214.625 320.625 -217 318 C-217 317.34 -217 316.68 -217 316 C-217.66 316 -218.32 316 -219 316 C-220.35302734 314.62573242 -220.35302734 314.62573242 -221.9609375 312.66796875 C-226.56191955 307.2580621 -231.58309804 302.30850229 -236.625 297.3125 C-238.0171875 295.92708008 -238.0171875 295.92708008 -239.4375 294.51367188 C-241.16240902 292.79741212 -242.88835167 291.08219003 -244.61572266 289.3684082 C-245.40253418 288.5868335 -246.1893457 287.80525879 -247 287 C-248.38711182 285.67585083 -248.38711182 285.67585083 -249.80224609 284.32495117 C-252 282 -252 282 -252 280 C-252.66 280 -253.32 280 -254 280 C-255.25415039 278.72021484 -255.25415039 278.72021484 -256.78515625 276.8359375 C-260.13674183 272.89258895 -263.69213998 269.23467117 -267.37109375 265.6015625 C-267.94187653 265.03644958 -268.5126593 264.47133667 -269.10073853 263.88909912 C-271.48843399 261.52848989 -273.88023974 259.17212288 -276.27612305 256.81982422 C-278.04125453 255.08470636 -279.80026685 253.34357159 -281.55859375 251.6015625 C-282.10535263 251.06826324 -282.65211151 250.53496399 -283.21543884 249.98550415 C-284.51528518 248.69447777 -285.76321543 247.35155967 -287 246 C-287 245.34 -287 244.68 -287 244 C-287.598125 243.731875 -288.19625 243.46375 -288.8125 243.1875 C-290.99847854 242.00082594 -292.41332594 240.90400887 -294 239 C-294 238.34 -294 237.68 -294 237 C-294.66 237 -295.32 237 -296 237 C-296 236.34 -296 235.68 -296 235 C-296.66 235 -297.32 235 -298 235 C-298 234.34 -298 233.68 -298 233 C-298.99 232.67 -299.98 232.34 -301 232 C-302.43969727 230.53466797 -302.43969727 230.53466797 -304.00390625 228.6171875 C-309.09952267 222.60862323 -314.78292976 217.18535138 -320.41235352 211.68359375 C-321.82994803 210.29600999 -323.24125905 208.90201582 -324.65234375 207.5078125 C-325.48757568 206.68941895 -326.32280762 205.87102539 -327.18334961 205.02783203 C-329 203 -329 203 -329 201 C-329.66 201 -330.32 201 -331 201 C-333.625 198.625 -333.625 198.625 -336 196 C-336 195.34 -336 194.68 -336 194 C-336.66 194 -337.32 194 -338 194 C-338 193.34 -338 192.68 -338 192 C-338.66 192 -339.32 192 -340 192 C-341.625 190.625 -341.625 190.625 -343 189 C-343 188.34 -343 187.68 -343 187 C-343.66 187 -344.32 187 -345 187 C-346.43006897 185.55487061 -346.43006897 185.55487061 -348.09790039 183.54199219 C-352.01819104 178.93535835 -356.17878406 174.6251293 -360.43359375 170.328125 C-361.22919205 169.52445496 -362.02479034 168.72078491 -362.84449768 167.89276123 C-364.52302775 166.20047785 -366.2030608 164.50968404 -367.88452148 162.8203125 C-369.57493038 161.11842622 -371.2608775 159.41209561 -372.94213867 157.70117188 C-402.60033338 127.52153361 -436.63002936 106.29763623 -480.0625 105.6875 C-521.8512881 105.92540527 -563.68063401 122.21893616 -593.57275391 151.54101562 C-603.83073594 162.02710879 -611.77618462 173.77645592 -618 187 C-618.51691406 188.04285156 -619.03382813 189.08570313 -619.56640625 190.16015625 C-623.32949275 197.92211162 -625.82659691 205.6669971 -628 214 C-628.27714844 214.94746094 -628.55429687 215.89492188 -628.83984375 216.87109375 C-639.38825028 253.02956192 -635.16644784 294.10652349 -617.33740234 327.1550293 C-614.79206135 331.74737972 -612.07256218 336.1732269 -608.99609375 340.43359375 C-608 342 -608 342 -608 344 C-607.34 344 -606.68 344 -606 344 C-604.8515625 345.609375 -604.8515625 345.609375 -603.625 347.75 C-601.68330081 350.97863935 -599.75395287 353.40804436 -597 356 C-595.96081452 357.18711035 -594.9306913 358.38217398 -593.90625 359.58203125 C-589.92558205 364.15541085 -585.68532287 368.4266773 -581.375 372.6875 C-580.63765625 373.42033203 -579.9003125 374.15316406 -579.140625 374.90820312 C-577.72006936 376.31984847 -576.29856576 377.73054072 -574.87597656 379.14013672 C-572.57677826 381.41958658 -570.2873634 383.70867923 -568 386 C-567.2471875 386.7528125 -566.494375 387.505625 -565.71875 388.28125 C-564.9865625 389.0134375 -564.254375 389.745625 -563.5 390.5 C-562.72269531 391.27601563 -561.94539062 392.05203125 -561.14453125 392.8515625 C-559.90736015 394.0909871 -558.67356141 395.33383897 -557.44921875 396.5859375 C-555.60937411 398.46565493 -553.81654984 400.13386904 -551.6875 401.6875 C-551.130625 402.120625 -550.57375 402.55375 -550 403 C-550 403.66 -550 404.32 -550 405 C-549.34 405 -548.68 405 -548 405 C-548 405.66 -548 406.32 -548 407 C-547.34 407 -546.68 407 -546 407 C-544.37890625 408.6796875 -544.37890625 408.6796875 -542.5625 410.875 C-540.41599116 413.46193722 -538.83223438 415.11184374 -536 417 C-536 417.66 -536 418.32 -536 419 C-535.34 419 -534.68 419 -534 419 C-531.375 421.375 -531.375 421.375 -529 424 C-529 424.66 -529 425.32 -529 426 C-528.34 426 -527.68 426 -527 426 C-527 426.66 -527 427.32 -527 428 C-526.34 428 -525.68 428 -525 428 C-525 428.66 -525 429.32 -525 430 C-524.4225 430.2475 -523.845 430.495 -523.25 430.75 C-520.67060021 432.18299988 -518.93878408 433.78424676 -517 436 C-517 436.66 -517 437.32 -517 438 C-516.34 438 -515.68 438 -515 438 C-515 438.66 -515 439.32 -515 440 C-514.34 440 -513.68 440 -513 440 C-513 440.66 -513 441.32 -513 442 C-512.34 442 -511.68 442 -511 442 C-509.375 443.375 -509.375 443.375 -508 445 C-508 445.66 -508 446.32 -508 447 C-507.34 447 -506.68 447 -506 447 C-506 447.66 -506 448.32 -506 449 C-505.34 449 -504.68 449 -504 449 C-504 449.66 -504 450.32 -504 451 C-503.01 451.33 -502.02 451.66 -501 452 C-501 452.66 -501 453.32 -501 454 C-500.34 454 -499.68 454 -499 454 C-499 454.66 -499 455.32 -499 456 C-498.34 456 -497.68 456 -497 456 C-497 456.66 -497 457.32 -497 458 C-496.401875 458.268125 -495.80375 458.53625 -495.1875 458.8125 C-493.00152146 459.99917406 -491.58667406 461.09599113 -490 463 C-490 463.66 -490 464.32 -490 465 C-489.01 465.33 -488.02 465.66 -487 466 C-487 466.66 -487 467.32 -487 468 C-486.34 468 -485.68 468 -485 468 C-485 468.66 -485 469.32 -485 470 C-484.41086319 470.26381973 -483.82172638 470.52763947 -483.21473694 470.79945374 C-480.90895321 472.04935389 -479.40638109 473.35217195 -477.56420898 475.20874023 C-476.91350937 475.85959091 -476.26280975 476.51044159 -475.59239197 477.18101501 C-474.90061356 477.883116 -474.20883514 478.58521698 -473.49609375 479.30859375 C-472.77639908 480.03111832 -472.05670441 480.75364288 -471.31520081 481.49806213 C-469.01789319 483.8065522 -466.72763168 486.12189304 -464.4375 488.4375 C-462.8917373 489.99329696 -461.34551847 491.54864087 -459.79882812 493.10351562 C-456.39053381 496.53145909 -452.98666928 499.96373195 -449.58665466 503.39988708 C-448.52170442 504.47387041 -447.42243119 505.51478589 -446.29335022 506.52113342 C-445 508 -445 508 -445 511 C-455.74058571 511.9306704 -466.41207284 512.24203011 -477.1875 512.25 C-478.01637726 512.25067474 -478.84525452 512.25134949 -479.69924927 512.25204468 C-526.38473938 512.19214771 -572.07394401 500.73733333 -612 476 C-612.56831543 475.65259766 -613.13663086 475.30519531 -613.72216797 474.94726562 C-627.4784137 466.51101033 -639.78905881 456.5082203 -652 446 C-652.77472656 445.3503125 -653.54945313 444.700625 -654.34765625 444.03125 C-658.41352705 440.58426898 -661.95020792 436.93106127 -665.390625 432.859375 C-666.83893358 431.18608645 -668.33844114 429.65219104 -669.9375 428.125 C-672 426 -672 426 -672 424 C-672.66 424 -673.32 424 -674 424 C-675.46190347 422.24035652 -676.84428585 420.41433225 -678.1875 418.5625 C-680.89238407 414.85953972 -683.61918783 411.1939687 -686.5 407.625 C-696.71369619 394.53354184 -705.3462529 379.60327922 -711.640625 364.2734375 C-712.81830497 361.43752999 -714.09643573 358.69800244 -715.4375 355.9375 C-721.66009818 342.32807558 -725.75421749 327.57568687 -729 313 C-729.27585937 311.77152344 -729.55171875 310.54304688 -729.8359375 309.27734375 C-733.29858814 292.97545879 -734.35096978 276.99159581 -734.31567383 260.36328125 C-734.31251822 257.26786878 -734.33605741 254.17342004 -734.36132812 251.078125 C-734.40018239 238.56338468 -733.46807371 226.53589492 -731.37130737 214.19743347 C-731.01164638 212.06892444 -730.67905115 209.93796929 -730.35546875 207.80371094 C-726.84771236 185.24934209 -718.54434516 162.18016972 -708 142 C-707.01987328 139.97963213 -706.04071336 137.95879497 -705.0625 135.9375 C-702.10093746 130.01437492 -698.63319875 124.5284388 -695 119 C-693.72631721 117.00181344 -692.45542348 115.001846 -691.1875 113 C-689.48202114 110.31494404 -687.76455023 107.64682535 -686 105 C-685.34 105 -684.68 105 -684 105 C-683.58427734 104.12021484 -683.58427734 104.12021484 -683.16015625 103.22265625 C-680.07616039 97.31426014 -675.39225393 92.18282014 -671.25 87 C-670.49203125 86.05125 -669.7340625 85.1025 -668.953125 84.125 C-668.30859375 83.42375 -667.6640625 82.7225 -667 82 C-666.34 82 -665.68 82 -665 82 C-665 81.34 -665 80.68 -665 80 C-662.625 77.375 -662.625 77.375 -660 75 C-659.34 75 -658.68 75 -658 75 C-658 74.34 -658 73.68 -658 73 C-655.625 70.375 -655.625 70.375 -653 68 C-652.34 68 -651.68 68 -651 68 C-651 67.34 -651 66.68 -651 66 C-646.52941176 62 -646.52941176 62 -644 62 C-644 61.34 -644 60.68 -644 60 C-642.05078125 58.37109375 -642.05078125 58.37109375 -639.3125 56.4375 C-638.30574219 55.72464844 -637.29898438 55.01179687 -636.26171875 54.27734375 C-635.18535156 53.52582031 -634.10898437 52.77429688 -633 52 C-631.95457031 51.25878906 -630.90914062 50.51757812 -629.83203125 49.75390625 C-626.57689769 47.46619362 -623.29884966 45.22416474 -620 43 C-619.06414062 42.36449219 -618.12828125 41.72898437 -617.1640625 41.07421875 C-606.07210848 33.89269892 -593.98862483 28.4950448 -582 23 C-581.29117676 22.67225586 -580.58235352 22.34451172 -579.85205078 22.00683594 C-527.70939201 -1.73131616 -460.89512712 -4.60725134 -407.01928711 14.71728516 C-374.50816372 26.93470401 -345.73853667 44.7749923 -320 68 C-319.0409375 68.85980469 -318.081875 69.71960938 -317.09375 70.60546875 C-315.44640991 72.08658627 -313.80273637 73.57180002 -312.1640625 75.0625 C-310.10585743 76.90522512 -308.00187822 78.67498737 -305.875 80.4375 C-304.92625 81.283125 -303.9775 82.12875 -303 83 C-303 83.66 -303 84.32 -303 85 C-302.34 85 -301.68 85 -301 85 C-298.375 87.375 -298.375 87.375 -296 90 C-296 90.66 -296 91.32 -296 92 C-295.41210693 92.26192139 -294.82421387 92.52384277 -294.21850586 92.79370117 C-291.88090333 94.06475808 -290.36347396 95.40737956 -288.50390625 97.30078125 C-287.86259766 97.94853516 -287.22128906 98.59628906 -286.56054688 99.26367188 C-285.57151367 100.2778418 -285.57151367 100.2778418 -284.5625 101.3125 C-283.90701172 101.97701172 -283.25152344 102.64152344 -282.57617188 103.32617188 C-281.29709193 104.62321282 -280.01992918 105.92214777 -278.74487305 107.22314453 C-276.51168452 109.49726599 -274.25575358 111.74828899 -272 114 C-270.7934375 115.2375 -270.7934375 115.2375 -269.5625 116.5 C-267.0019495 119.07363115 -267.0019495 119.07363115 -264 121.4375 C-261.7546154 123.35543268 -260.07679112 124.99874859 -258.25 127.25 C-256.29368116 130.02359938 -256.29368116 130.02359938 -254 131 C-254 131.66 -254 132.32 -254 133 C-253.34 133 -252.68 133 -252 133 C-250.44921875 134.609375 -250.44921875 134.609375 -248.6875 136.75 C-246.00048163 139.92101547 -243.26491816 142.42243303 -240 145 C-239.08314672 146.04441547 -238.18781309 147.10803226 -237.3125 148.1875 C-235.30609749 151.01647233 -235.30609749 151.01647233 -233 152 C-233 152.66 -233 153.32 -233 154 C-232.34 154 -231.68 154 -231 154 C-228.375 156.375 -228.375 156.375 -226 159 C-226 159.66 -226 160.32 -226 161 C-225.34 161 -224.68 161 -224 161 C-222.44921875 162.609375 -222.44921875 162.609375 -220.6875 164.75 C-218.01237765 167.91761349 -215.26074314 170.43092965 -212 173 C-212 173.66 -212 174.32 -212 175 C-211.34 175 -210.68 175 -210 175 C-210 175.66 -210 176.32 -210 177 C-209.34 177 -208.68 177 -208 177 C-206.375 178.375 -206.375 178.375 -205 180 C-205 180.66 -205 181.32 -205 182 C-204.34 182 -203.68 182 -203 182 C-203 182.66 -203 183.32 -203 184 C-202.34 184 -201.68 184 -201 184 C-201 184.66 -201 185.32 -201 186 C-198.525 186.99 -198.525 186.99 -196 188 C-196 187.34 -196 186.68 -196 186 C-193.625 183.375 -193.625 183.375 -191 181 C-190.34 181 -189.68 181 -189 181 C-189 180.34 -189 179.68 -189 179 C-187.390625 177.4140625 -187.390625 177.4140625 -185.25 175.625 C-182.93096298 173.66242273 -180.74780716 171.7411705 -178.625 169.5625 C-177 168 -177 168 -175 168 C-175 167.34 -175 166.68 -175 166 C-174.34 166 -173.68 166 -173 166 C-173 165.34 -173 164.68 -173 164 C-171.63671875 162.66015625 -171.63671875 162.66015625 -169.6875 161.0625 C-165.42465257 157.4631011 -161.5384439 153.5813202 -157.68237305 149.55688477 C-156.49090704 148.33509286 -155.24906136 147.16284669 -154 146 C-153.34 146 -152.68 146 -152 146 C-152 145.34 -152 144.68 -152 144 C-150.390625 142.34375 -150.390625 142.34375 -148.25 140.5 C-147.55390625 139.8915625 -146.8578125 139.283125 -146.140625 138.65625 C-144 137 -144 137 -141.80078125 135.90234375 C-139.42179401 134.71026989 -139.08197124 133.38033673 -138 131 C-136.5 129.25 -136.5 129.25 -135 128 C-134.34 128 -133.68 128 -133 128 C-133 127.34 -133 126.68 -133 126 C-132.34 126 -131.68 126 -131 126 C-131 125.34 -131 124.68 -131 124 C-129.390625 122.34375 -129.390625 122.34375 -127.25 120.5 C-126.55390625 119.8915625 -125.8578125 119.283125 -125.140625 118.65625 C-123.15539208 117.12023037 -121.28127955 116.0276034 -119 115 C-119 114.34 -119 113.68 -119 113 C-118.34 113 -117.68 113 -117 113 C-117 112.34 -117 111.68 -117 111 C-114.625 108.375 -114.625 108.375 -112 106 C-111.34 106 -110.68 106 -110 106 C-110 105.34 -110 104.68 -110 104 C-108.390625 102.4140625 -108.390625 102.4140625 -106.25 100.625 C-103.93096298 98.66242273 -101.74780716 96.7411705 -99.625 94.5625 C-98 93 -98 93 -96 93 C-96 92.34 -96 91.68 -96 91 C-94.56640625 89.58984375 -94.56640625 89.58984375 -92.5625 87.9375 C-88.41038212 84.42929345 -84.64192767 80.64549595 -80.8828125 76.72265625 C-79 75 -79 75 -77 75 C-77 74.34 -77 73.68 -77 73 C-76.34 73 -75.68 73 -75 73 C-75 72.34 -75 71.68 -75 71 C-73.53125 69.51953125 -73.53125 69.51953125 -71.5 67.8125 C-70.41525391 66.88824219 -70.41525391 66.88824219 -69.30859375 65.9453125 C-68.54675781 65.30335938 -67.78492188 64.66140625 -67 64 C-65.51720949 62.73339679 -64.03785243 61.46275942 -62.5625 60.1875 C-61.90378906 59.62417969 -61.24507812 59.06085937 -60.56640625 58.48046875 C-58.88980014 57.06530792 -58.88980014 57.06530792 -58 55 C-57.34 55 -56.68 55 -56 55 C-56 54.34 -56 53.68 -56 53 C-55.34 53 -54.68 53 -54 53 C-54 52.34 -54 51.68 -54 51 C-52.390625 49.4140625 -52.390625 49.4140625 -50.25 47.625 C-47.93096298 45.66242273 -45.74780716 43.7411705 -43.625 41.5625 C-42 40 -42 40 -40 40 C-40 39.34 -40 38.68 -40 38 C-38.63671875 36.66015625 -38.63671875 36.66015625 -36.6875 35.0625 C-32.42465257 31.4631011 -28.5384439 27.5813202 -24.68237305 23.55688477 C-23.49090704 22.33509286 -22.24906136 21.16284669 -21 20 C-20.34 20 -19.68 20 -19 20 C-19 19.34 -19 18.68 -19 18 C-17.56640625 16.58984375 -17.56640625 16.58984375 -15.5625 14.9375 C-11.41038212 11.42929345 -7.64192767 7.64549595 -3.8828125 3.72265625 C-2 2 -2 2 0 2 C0 1.34 0 0.68 0 0 Z " fill="#C5CBD3" transform="translate(825,705)"/>
<path d="M0 0 C23.76 0 47.52 0 72 0 C74.6320444 4.38674066 77.09576732 8.80158818 79.5 13.3125 C79.89058594 14.03373047 80.28117187 14.75496094 80.68359375 15.49804688 C82.87419732 19.61003843 84.69194341 23.68441772 86.26220703 28.06811523 C87.49389987 31.29325931 89.0974721 34.31495374 90.6875 37.375 C93.63875157 43.15114777 96.35896051 48.98623087 98.9375 54.9375 C101.92742714 61.81907833 105.27292087 68.42254857 108.84863281 75.01611328 C111.50579598 79.95398887 113.74905824 84.95510851 115.82421875 90.16796875 C118.3043974 96.14182098 121.36067852 101.85875682 124.3515625 107.58984375 C126.94789135 112.63118167 129.0558249 117.66553009 130.92163086 123.01977539 C131.94842663 125.85746974 133.06104018 128.63246681 134.23046875 131.4140625 C134.6692334 132.46029785 135.10799805 133.5065332 135.56005859 134.58447266 C136.81147865 137.55282915 138.06438394 140.52055442 139.31765747 143.48812866 C140.38347649 146.01578483 141.44434841 148.54549945 142.50415039 151.07568359 C143.04950803 152.37393456 143.59741993 153.67111511 144.14770508 154.96728516 C144.95540246 156.87129584 145.75394795 158.77892178 146.55078125 160.6875 C147.25714722 162.36392578 147.25714722 162.36392578 147.9777832 164.07421875 C149 167 149 167 149 171 C152.17917495 170.32777937 152.17917495 170.32777937 153.22338867 167.63354492 C153.6176001 166.59302979 154.01181152 165.55251465 154.41796875 164.48046875 C154.86390381 163.32208496 155.30983887 162.16370117 155.76928711 160.97021484 C156.24213646 159.70935179 156.71487171 158.44844594 157.1875 157.1875 C157.67658969 155.90789658 158.16691308 154.62876406 158.65844727 153.35009766 C159.64567455 150.78007589 160.62816959 148.20832412 161.60742188 145.63525391 C163.50010858 140.69449216 165.46022435 135.78239155 167.4375 130.875 C168.04046762 129.37243718 168.64333689 127.86983488 169.24609375 126.3671875 C169.5299292 125.66150635 169.81376465 124.9558252 170.10620117 124.22875977 C170.74990105 122.62364199 171.39028762 121.01719406 172.02856445 119.40991211 C173.71290737 115.17260841 175.40420982 110.9552245 177.3125 106.8125 C177.73402344 105.89597656 178.15554688 104.97945312 178.58984375 104.03515625 C181.0840541 98.6667312 183.58375536 93.30096982 186.09277344 87.93945312 C187.56412215 84.7940295 189.03196306 81.64697032 190.5 78.5 C192.2716119 74.70226854 194.04410127 70.90495792 195.8203125 67.109375 C201.86256814 54.28770854 201.86256814 54.28770854 207.5625 41.3125 C208.91251235 38.20160197 210.38041639 35.19786165 211.9375 32.1875 C213.06462574 29.86694701 214.07327793 27.50613263 215.08105469 25.13183594 C217.03365594 20.60205003 219.08744024 16.11702656 221.125 11.625 C221.58003906 10.61566406 222.03507812 9.60632813 222.50390625 8.56640625 C222.93832031 7.60863281 223.37273437 6.65085937 223.8203125 5.6640625 C224.21492676 4.79217285 224.60954102 3.9202832 225.01611328 3.02197266 C226 1 226 1 227 0 C250.76 0 274.52 0 299 0 C299 77.55 299 155.1 299 235 C281.18 235 263.36 235 245 235 C244.95972349 220.81371795 244.91956044 206.62759525 244.89949226 192.44130135 C244.88853165 184.813543 244.87470151 177.18583027 244.84912109 169.55810547 C244.75074561 139.65161491 244.66939833 109.83373792 247 80 C246.34 80 245.68 80 245 80 C244.443125 81.7634375 244.443125 81.7634375 243.875 83.5625 C242.24206655 88.48440789 240.29548347 93.26341704 238.33349609 98.06005859 C236.51919407 102.55288149 234.96823929 107.06965063 233.5 111.6875 C231.63844677 117.39665848 229.38215009 122.60144765 226.59765625 127.9140625 C224.81593888 131.35552148 223.18104243 134.85509805 221.5625 138.375 C218.69777888 144.5795045 215.68055173 150.69237511 212.578125 156.78125 C210.92979778 160.14318472 209.45976564 163.55246837 208 167 C207.09196711 169.00393464 206.1752495 171.00395613 205.25 173 C204.46689453 174.68996094 204.46689453 174.68996094 203.66796875 176.4140625 C201.3794469 181.3341165 199.08754431 186.25255977 196.7890625 191.16796875 C195.59116052 193.73069349 194.39886934 196.29592036 193.2109375 198.86328125 C192.91372803 199.50410645 192.61651855 200.14493164 192.31030273 200.80517578 C191.49614665 202.56102009 190.68355918 204.3175915 189.87109375 206.07421875 C187.32335514 211.41968284 184.64820537 216.70358926 182 222 C160.55 222 139.1 222 117 222 C114.03 215.4 111.06 208.8 108 202 C104.9745817 195.90135218 104.9745817 195.90135218 101.9140625 189.8203125 C98.05954456 182.185779 94.46521417 174.4080593 91.0625 166.5625 C89.20331721 162.31293933 87.09622621 158.19831052 85 154.0625 C82.37702432 148.88290011 79.99193496 143.7184303 77.921875 138.2890625 C75.88504696 133.23151491 73.29349527 128.40276546 70.7109375 123.60546875 C67.81425073 118.1053181 65.90329784 112.68720941 64.17578125 106.72265625 C62.4977588 101.40984762 60.44326554 96.26235578 58.37353516 91.09179688 C58.08140137 90.35896484 57.78926758 89.62613281 57.48828125 88.87109375 C57.22571533 88.22068115 56.96314941 87.57026855 56.69262695 86.90014648 C56 85 56 85 55.59448242 82.82055664 C55.39830322 82.21977295 55.20212402 81.61898926 55 81 C54.01 80.67 53.02 80.34 52 80 C52.33 80.99 52.66 81.98 53 83 C53.14708136 84.4884589 53.24538249 85.98201613 53.31297302 87.47619629 C53.35444741 88.39198204 53.3959218 89.30776779 53.43865299 90.25130463 C53.49693602 91.75596157 53.49693602 91.75596157 53.55639648 93.29101562 C53.59857772 94.35202736 53.64075895 95.41303909 53.68421841 96.5062027 C54.14964624 109.42865591 54.12890511 122.3513793 54.10139394 135.28037834 C54.09501171 138.80365667 54.09454515 142.32693651 54.09336853 145.85021973 C54.09029799 152.47929771 54.08214422 159.10835859 54.07201904 165.73742914 C54.06072256 173.30253103 54.05531386 180.86763386 54.05032361 188.43274212 C54.03995643 203.95517291 54.02166632 219.47758024 54 235 C36.18 235 18.36 235 0 235 C0 157.45 0 79.9 0 0 Z " fill="#C5CBD3" transform="translate(998,982)"/>
<path d="M0 0 C18.81 0 37.62 0 57 0 C61.05492164 5.21347067 64.98092276 10.30031891 68.75 15.6875 C73.91194108 22.99682461 79.42419575 30.00428447 85 37 C89.07592872 42.1242643 92.97168071 47.33987105 96.75 52.6875 C101.91612609 59.99410514 107.42397616 67.00400895 113 74 C117.53849825 79.70580747 121.83349857 85.5479675 126.03198242 91.50708008 C128.58526577 95.10347601 131.23551123 98.58229226 134.01342773 102.00756836 C140.62427002 110.16414102 146.11252708 118.87567462 151.62060547 127.80126953 C154.18876239 131.8948662 156.92748431 135.87052096 159.671875 139.84765625 C161 142 161 142 161 144 C161.66 144 162.32 144 163 144 C163.31453125 144.59167969 163.6290625 145.18335938 163.953125 145.79296875 C166.34440997 150.20820275 168.81175359 154.10325438 172 158 C172 158.66 172 159.32 172 160 C172.99 160 173.98 160 175 160 C174.93426757 159.27796796 174.86853514 158.55593592 174.80081081 157.81202412 C174.15114429 150.4002541 173.71229291 143.00395326 173.44360352 135.5690918 C173.40142228 134.40608645 173.35924105 133.24308111 173.31578159 132.04483318 C172.86987831 118.66167716 172.87420761 105.28356482 172.90234375 91.89453125 C172.90421562 89.22026995 172.90568528 86.54601136 172.90663147 83.87174988 C172.90969345 77.63588847 172.91783466 71.40004538 172.92798096 65.1641919 C172.94042406 57.34058462 172.94576575 49.51697413 172.95117188 41.69335938 C172.96080547 27.79555878 172.9808541 13.89779795 173 0 C190.82 0 208.64 0 227 0 C227 77.55 227 155.1 227 235 C207.86 235 188.72 235 169 235 C165.27583639 230.65514246 161.70452119 226.40761002 158.25 221.875 C157.37503272 220.73044374 156.50003181 219.58591318 155.625 218.44140625 C155.18671875 217.86664551 154.7484375 217.29188477 154.296875 216.69970703 C152.28732889 214.06596079 150.26890855 211.43907346 148.25 208.8125 C147.84378418 208.28382324 147.43756836 207.75514648 147.01904297 207.21044922 C144.06861985 203.3754633 141.09811461 199.55647341 138.12255859 195.7409668 C131.57995603 187.35111642 125.10189179 178.91520995 118.68115234 170.43164062 C114.80126983 165.31720453 110.84940024 160.26986775 106.82373047 155.26928711 C101.69210148 148.88394689 96.79866549 142.36186123 92.01171875 135.71484375 C90.20466813 133.27620262 88.32100185 130.95273356 86.375 128.625 C78.11126441 118.40831127 71.25903784 106.99834041 64.08984375 96.00390625 C63.4570752 95.04009033 62.82430664 94.07627441 62.17236328 93.08325195 C60.95133853 91.22318472 59.73722781 89.3585567 58.53076172 87.48901367 C57.98049316 86.65217041 57.43022461 85.81532715 56.86328125 84.953125 C56.38157471 84.21223633 55.89986816 83.47134766 55.40356445 82.70800781 C54.01492908 80.70931795 54.01492908 80.70931795 51 80 C51.14210907 81.15207443 51.28421814 82.30414886 51.43063354 83.49113464 C53.20374355 99.05068833 53.26582321 114.55158211 53.20278788 130.18777108 C53.19007598 133.88723236 53.18909423 137.58669883 53.18673706 141.28617859 C53.18058121 148.2553725 53.16425246 155.22450181 53.14403808 162.19366759 C53.1214927 170.1432082 53.11063935 178.09275229 53.10064721 186.04231703 C53.07987918 202.36158819 53.04327913 218.68077065 53 235 C35.51 235 18.02 235 0 235 C0 157.45 0 79.9 0 0 Z " fill="#C5CBD3" transform="translate(1404,982)"/>
<path d="M0 0 C130.83768939 0 130.83768939 0 145 2.6875 C145.92441895 2.86120117 146.84883789 3.03490234 147.80126953 3.21386719 C165.43026058 6.72203337 183.47242737 13.56171252 197.1796875 25.43359375 C198.92449364 27.06408763 198.92449364 27.06408763 201 28 C201 28.66 201 29.32 201 30 C201.66 30 202.32 30 203 30 C203 30.66 203 31.32 203 32 C203.84498047 32.33644531 203.84498047 32.33644531 204.70703125 32.6796875 C220.38205632 41.70551113 229.31193153 67.27231439 233.75 83.5 C234.06662598 84.63852417 234.06662598 84.63852417 234.38964844 85.80004883 C237.1287441 96.36400769 237.16366484 107.14806788 237.125 118 C237.12886719 119.08539062 237.13273437 120.17078125 237.13671875 121.2890625 C237.12266227 133.06839321 236.18969106 143.89710674 232.9375 155.25 C232.62659424 156.33901611 232.31568848 157.42803223 231.99536133 158.55004883 C224.11494196 185.07405192 207.42074689 206.60207991 183.1796875 220.1953125 C176.37502249 223.83656208 169.35371346 226.79290636 162.0625 229.3125 C161.40862305 229.54291992 160.75474609 229.77333984 160.08105469 230.01074219 C142.59498476 235.69475824 124.87695777 235.4117537 106.71964264 235.30384064 C103.32647419 235.28651969 99.9333744 235.28593867 96.54016113 235.28381348 C86.67256757 235.26818661 76.80502964 235.22630303 66.9375 235.1875 C33.8034375 235.0946875 33.8034375 235.0946875 0 235 C0 157.45 0 79.9 0 0 Z M54 49 C54 94.54 54 140.08 54 187 C66.49875 187.0825 78.9975 187.165 91.875 187.25 C97.73741455 187.30462402 97.73741455 187.30462402 103.71826172 187.36035156 C107.30249855 187.3737507 107.30249855 187.3737507 110.88674927 187.3817749 C112.45100493 187.38781249 114.01524518 187.40165483 115.57937622 187.42230225 C132.08218666 187.62875613 149.26625959 186.04762827 163 176 C165.81417179 173.23635194 167.92534441 170.34345323 170 167 C170.45761719 166.35933594 170.91523437 165.71867187 171.38671875 165.05859375 C183.96682665 145.75398373 182.48524087 112.33580361 178.33984375 90.66870117 C175.46176899 77.23282399 169.78646983 64.85764655 158 57 C142.92663481 49.25739712 127.50196733 48.84628522 110.93359375 48.90234375 C109.47334837 48.90381685 108.01310246 48.90483529 106.55285645 48.90539551 C101.18106283 48.91060578 95.80928057 48.92456698 90.4375 48.9375 C78.413125 48.958125 66.38875 48.97875 54 49 Z " fill="#C5CBD3" transform="translate(1660,982)"/>
<path d="M0 0 C2.1875 0.3125 2.1875 0.3125 4 1 C4 1.66 4 2.32 4 3 C4.99 3.33 5.98 3.66 7 4 C7 4.66 7 5.32 7 6 C7.66 6 8.32 6 9 6 C9 6.66 9 7.32 9 8 C9.66 8 10.32 8 11 8 C12.37719727 9.40283203 12.37719727 9.40283203 14.00390625 11.3828125 C19.15772599 17.44660145 24.89621231 22.9076714 30.58789062 28.4609375 C31.41353516 29.275625 32.23917969 30.0903125 33.08984375 30.9296875 C33.84128662 31.66429199 34.59272949 32.39889648 35.36694336 33.15576172 C37 35 37 35 37 37 C37.66 37 38.32 37 39 37 C39 37.66 39 38.32 39 39 C39.66 39 40.32 39 41 39 C42.375 40.3984375 42.375 40.3984375 44 42.375 C48.3896885 47.53720096 53.17533167 52.24734165 58 57 C63.35619389 62.2762507 68.59300072 67.56211339 73.49145508 73.26831055 C75.550641 75.63209202 77.75292705 77.8148678 80 80 C82.60962437 82.5569909 85.21169755 85.12154084 87.8125 87.6875 C88.50537109 88.36361328 89.19824219 89.03972656 89.91210938 89.73632812 C90.8934082 90.70795898 90.8934082 90.70795898 91.89453125 91.69921875 C92.49112549 92.28533936 93.08771973 92.87145996 93.70239258 93.4753418 C95 95 95 95 95 97 C95.66 97 96.32 97 97 97 C97 97.66 97 98.32 97 99 C97.99 99.33 98.98 99.66 100 100 C100 100.66 100 101.32 100 102 C100.66 102 101.32 102 102 102 C104.625 104.375 104.625 104.375 107 107 C107 107.66 107 108.32 107 109 C107.66 109 108.32 109 109 109 C110.37719727 110.40283203 110.37719727 110.40283203 112.00390625 112.3828125 C117.15772599 118.44660145 122.89621231 123.9076714 128.58789062 129.4609375 C129.41353516 130.275625 130.23917969 131.0903125 131.08984375 131.9296875 C131.84128662 132.66429199 132.59272949 133.39889648 133.36694336 134.15576172 C135 136 135 136 135 138 C135.66 138 136.32 138 137 138 C137 138.66 137 139.32 137 140 C137.66 140 138.32 140 139 140 C140.625 141.375 140.625 141.375 142 143 C142 143.66 142 144.32 142 145 C142.66 145 143.32 145 144 145 C145.3046875 146.328125 145.3046875 146.328125 146.875 148.25 C150.68659953 152.76565294 154.83247727 156.86942916 159.08740234 160.96191406 C160.42774345 162.27195774 161.71855875 163.63228766 163 165 C163 165.66 163 166.32 163 167 C163.598125 167.268125 164.19625 167.53625 164.8125 167.8125 C166.99847854 168.99917406 168.41332594 170.09599113 170 172 C170 172.66 170 173.32 170 174 C170.66 174 171.32 174 172 174 C172 174.66 172 175.32 172 176 C172.99 176.33 173.98 176.66 175 177 C175 177.66 175 178.32 175 179 C175.66 179 176.32 179 177 179 C178.41015625 180.43359375 178.41015625 180.43359375 180.0625 182.4375 C183.54078035 186.58496325 187.35372668 190.20639555 191.375 193.82421875 C191.91125 194.54222656 192.4475 195.26023437 193 196 C192.6015625 198.63598633 192.6015625 198.63598633 192 201 C180.72230427 201.13272019 169.44458503 201.26322292 158.16683388 201.39115143 C152.92598875 201.45066485 147.68515338 201.51084752 142.44433594 201.57275391 C131.42546666 201.70245181 120.40665174 201.82060629 109.38742447 201.91566467 C104.02178547 201.96404995 98.65724634 202.03462476 93.29225349 202.1306839 C90.17265732 202.18348063 87.05301126 202.2201047 83.93314743 202.25291443 C82.52474948 202.27139273 81.11642099 202.29690588 79.70830154 202.33045959 C68.46520061 202.59403735 58.17604141 201.15393053 49.0625 194.0625 C48.17046875 193.37027344 47.2784375 192.67804688 46.359375 191.96484375 C43.69988356 189.75006859 41.24657964 187.63392095 39 185 C39 184.34 39 183.68 39 183 C38.34 183 37.68 183 37 183 C35.64902626 181.48848454 34.37072655 179.91186687 33.125 178.3125 C29.48455151 173.75899404 25.71518527 169.39836985 21.75 165.125 C21.25516113 164.59044189 20.76032227 164.05588379 20.25048828 163.50512695 C17.93134829 161.0165503 15.5910364 158.60556243 13.140625 156.2421875 C11 154 11 154 11 152 C10.34 152 9.68 152 9 152 C6.375 149.625 6.375 149.625 4 147 C4 146.34 4 145.68 4 145 C3.34 145 2.68 145 2 145 C-0.625 142.625 -0.625 142.625 -3 140 C-3 139.34 -3 138.68 -3 138 C-3.66 138 -4.32 138 -5 138 C-7.625 135.625 -7.625 135.625 -10 133 C-10 132.34 -10 131.68 -10 131 C-10.66 131 -11.32 131 -12 131 C-13.31347656 129.6652832 -13.31347656 129.6652832 -14.890625 127.73828125 C-19.85359171 121.90229527 -25.31529495 116.57712847 -30.75 111.1875 C-31.80101685 110.14151272 -32.85179966 109.09529022 -33.90234375 108.04882812 C-35.81985666 106.1394125 -37.7389556 104.23164532 -39.65917969 102.32495117 C-40.43165039 101.55771729 -41.20412109 100.7904834 -42 100 C-42.59973633 99.44223877 -43.19947266 98.88447754 -43.81738281 98.30981445 C-45 97 -45 97 -45 95 C-45.66 95 -46.32 95 -47 95 C-49.625 92.625 -49.625 92.625 -52 90 C-52 89.34 -52 88.68 -52 88 C-52.66 88 -53.32 88 -54 88 C-55.48046875 86.49609375 -55.48046875 86.49609375 -57.1875 84.4375 C-60.14231126 80.95106998 -63.22945263 77.71258683 -66.51953125 74.54296875 C-68 73 -68 73 -70 70 C-69.9375 68.0625 -69.9375 68.0625 -69 66 C-67.3603279 64.63360658 -65.68889872 63.3050581 -64 62 C-62.81087587 60.55376794 -61.62275757 59.10657196 -60.453125 57.64453125 C-58.1518007 55.04007553 -55.50819546 52.85971498 -52.86328125 50.61328125 C-50.85785564 48.92293366 -50.85785564 48.92293366 -48.625 46.5625 C-47 45 -47 45 -45 45 C-45 44.34 -45 43.68 -45 43 C-42.625 40.375 -42.625 40.375 -40 38 C-39.34 38 -38.68 38 -38 38 C-38 37.34 -38 36.68 -38 36 C-36.390625 34.4140625 -36.390625 34.4140625 -34.25 32.625 C-31.93096298 30.66242273 -29.74780716 28.7411705 -27.625 26.5625 C-26 25 -26 25 -24 25 C-24 24.34 -24 23.68 -24 23 C-22.70703125 21.73046875 -22.70703125 21.73046875 -20.8125 20.1875 C-15.01253769 15.27104449 -9.74327495 9.83019872 -4.40698242 4.42285156 C-3.94267822 3.95331055 -3.47837402 3.48376953 -3 3 C-2.23683472 2.15840332 -2.23683472 2.15840332 -1.45825195 1.29980469 C-0.97702881 0.87086914 -0.49580566 0.44193359 0 0 Z " fill="#C5CBD3" transform="translate(457,1015)"/>
<path d="M0 0 C1.12692261 0.00181274 1.12692261 0.00181274 2.27661133 0.00366211 C26.19410862 0.10794982 46.82243773 5.30040687 66.5625 19.375 C67.31789063 19.89449219 68.07328125 20.41398438 68.8515625 20.94921875 C69.41617187 21.41972656 69.98078125 21.89023437 70.5625 22.375 C70.5625 23.035 70.5625 23.695 70.5625 24.375 C71.2225 24.375 71.8825 24.375 72.5625 24.375 C75.08020749 26.87368199 77.27796166 29.66335232 79.5625 32.375 C80.408125 33.2825 81.25375 34.19 82.125 35.125 C85.84965225 39.61179232 88.13576754 45.11707968 90.5625 50.375 C91.31080078 51.99341797 91.31080078 51.99341797 92.07421875 53.64453125 C100.77604709 74.30572301 101.62972461 99.93049924 95.5625 121.375 C95.2840625 122.47328125 95.005625 123.5715625 94.71875 124.703125 C91.38896244 136.8166625 85.42510912 148.34940037 76.5625 157.375 C75.9025 157.375 75.2425 157.375 74.5625 157.375 C73.9025 158.695 73.2425 160.015 72.5625 161.375 C71.9025 161.375 71.2425 161.375 70.5625 161.375 C70.5625 162.035 70.5625 162.695 70.5625 163.375 C68.49392556 165.08119644 66.43694606 166.64574817 64.25 168.1875 C63.61642578 168.63746338 62.98285156 169.08742676 62.33007812 169.55102539 C57.01548942 173.2358514 51.54718786 175.93348555 45.5625 178.375 C43.54208367 179.34009207 41.55441266 180.35212593 39.5625 181.375 C40.30306641 182.18904297 40.30306641 182.18904297 41.05859375 183.01953125 C41.69925781 183.73496094 42.33992188 184.45039062 43 185.1875 C43.63808594 185.89519531 44.27617188 186.60289062 44.93359375 187.33203125 C46.5625 189.375 46.5625 189.375 47.5625 192.375 C48.2225 192.375 48.8825 192.375 49.5625 192.375 C51.2890625 194.0546875 51.2890625 194.0546875 53.1875 196.25 C53.81914063 196.96929688 54.45078125 197.68859375 55.1015625 198.4296875 C56.5625 200.375 56.5625 200.375 56.5625 202.375 C57.2225 202.375 57.8825 202.375 58.5625 202.375 C60.10101766 204.09451974 61.56981759 205.87687497 63 207.6875 C66.01485569 211.53967002 66.01485569 211.53967002 69.34765625 215.10546875 C70.5625 216.375 70.5625 216.375 70.5625 218.375 C71.2225 218.375 71.8825 218.375 72.5625 218.375 C72.5625 219.365 72.5625 220.355 72.5625 221.375 C65.21739367 221.73203972 57.87454256 221.97594059 50.52270508 222.14404297 C48.0264122 222.21415176 45.53068826 222.30947862 43.03637695 222.43115234 C21.15646356 223.47118018 21.15646356 223.47118018 15.61523438 218.45776367 C13.10731666 215.57228492 11.20999435 212.4479573 9.45974731 209.05834961 C8.30033192 206.88313948 6.84804862 205.06797991 5.2578125 203.19140625 C4.81953125 202.63646484 4.38125 202.08152344 3.9296875 201.50976562 C3.07925385 200.43335197 2.22763277 199.35787568 1.375 198.28320312 C0.94445313 197.73728516 0.51390625 197.19136719 0.0703125 196.62890625 C-0.56197266 195.8390332 -0.56197266 195.8390332 -1.20703125 195.03320312 C-2.4375 193.375 -2.4375 193.375 -3.54296875 191.46679688 C-5.18750171 188.71743163 -6.36188607 186.78108839 -9.43115234 185.62231445 C-11.8540355 185.18361274 -14.23270822 184.93989149 -16.6875 184.75 C-18.48675506 184.54301914 -20.28495789 184.32670065 -22.08203125 184.1015625 C-22.98131348 183.98973633 -23.8805957 183.87791016 -24.80712891 183.76269531 C-47.97254844 180.34830082 -67.41201465 167.11147496 -81.4375 148.7578125 C-92.99780165 131.77861945 -96.61276966 113.23033066 -96.625 93.0625 C-96.63724609 92.01126953 -96.64949219 90.96003906 -96.66210938 89.87695312 C-96.67567325 82.52081342 -95.86254915 75.58650781 -94.4375 68.375 C-94.19 67.116875 -93.9425 65.85875 -93.6875 64.5625 C-90.02118892 50.997149 -83.67818388 38.996035 -74.4375 28.375 C-73.7775 28.375 -73.1175 28.375 -72.4375 28.375 C-72.4375 27.715 -72.4375 27.055 -72.4375 26.375 C-71.7775 26.375 -71.1175 26.375 -70.4375 26.375 C-70.22609375 25.80394531 -70.0146875 25.23289062 -69.796875 24.64453125 C-63.05739282 13.39269463 -42.73971202 6.3759727 -31.08203125 3.19921875 C-29.87933594 2.92722656 -28.67664062 2.65523437 -27.4375 2.375 C-26.67993408 2.19839844 -25.92236816 2.02179687 -25.1418457 1.83984375 C-16.79011828 0.08504876 -8.49287833 -0.0252236 0 0 Z M-39.4375 49.375 C-39.4375 50.035 -39.4375 50.695 -39.4375 51.375 C-40.0975 51.375 -40.7575 51.375 -41.4375 51.375 C-51.73878641 63.34676529 -52.61588184 77.65166209 -52.625 92.6875 C-52.63724609 93.73873047 -52.64949219 94.78996094 -52.66210938 95.87304688 C-52.68751139 109.64940866 -50.75416289 123.32090976 -41.75 134.265625 C-34.97975897 140.4411827 -25.45336302 144.20500251 -16.4375 145.375 C-15.78265625 145.48328125 -15.1278125 145.5915625 -14.453125 145.703125 C2.04378521 148.05982646 22.99086147 147.84592875 37.28515625 138.6171875 C46.69694975 131.54794643 51.52032481 123.0030633 53.5625 111.375 C55.83579792 92.14061447 56.63403408 69.57626942 44.5625 53.375 C43.9025 53.375 43.2425 53.375 42.5625 53.375 C42.0675 51.89 42.0675 51.89 41.5625 50.375 C22.37711854 33.7476694 -19.21459569 35.53633373 -39.4375 49.375 Z " fill="#C5CBD3" transform="translate(1081.4375,743.625)"/>
<path d="M0 0 C50.49 0 100.98 0 153 0 C153 12.54 153 25.08 153 38 C116.37 38 79.74 38 42 38 C42 48.89 42 59.78 42 71 C77.31 71 112.62 71 149 71 C149 83.54 149 96.08 149 109 C113.69 109 78.38 109 42 109 C42 120.22 42 131.44 42 143 C78.63 143 115.26 143 153 143 C153 155.54 153 168.08 153 181 C102.51 181 52.02 181 0 181 C0 121.27 0 61.54 0 0 Z " fill="#C5CBD3" transform="translate(1391,746)"/>
<path d="M0 0 C1.16010338 -0.00855011 1.16010338 -0.00855011 2.34364319 -0.01727295 C3.976559 -0.02667362 5.60949336 -0.03323718 7.24243164 -0.03710938 C9.68476612 -0.04672581 12.12622494 -0.07775841 14.56835938 -0.109375 C37.52671435 -0.26486068 59.31353693 4.73099003 76.4609375 20.85546875 C88.66812856 33.18575753 92.78515625 49.09688497 92.78515625 66.203125 C78.92515625 66.203125 65.06515625 66.203125 50.78515625 66.203125 C50.12515625 61.913125 49.46515625 57.623125 48.78515625 53.203125 C47.00351321 48.36723675 44.97944115 46.13214116 40.78515625 43.203125 C30.48951348 39.37700115 20.16235617 38.58360216 9.28369141 38.73657227 C7.0217241 38.76579855 4.76208025 38.75706262 2.5 38.74414062 C-12.56708442 38.65239191 -12.56708442 38.65239191 -25.90234375 44.765625 C-29.64353093 48.70903852 -29.51253251 51.46611063 -29.4140625 56.73046875 C-29.13893272 60.14531479 -28.62303554 61.7219577 -26.21484375 64.203125 C-20.48861352 67.3427333 -14.74242229 68.98218824 -8.33984375 70.015625 C-6.99962158 70.2487439 -6.99962158 70.2487439 -5.63232422 70.48657227 C0.38290465 71.51710618 6.41129126 72.46076001 12.44113159 73.40113831 C16.2264049 73.99284033 20.01039903 74.59256077 23.79449463 75.19174194 C26.59575857 75.63053762 29.39898048 76.0545857 32.20263672 76.4777832 C49.83112756 79.20629355 71.82290327 83.1028865 84.296875 97.15625 C91.97148536 107.71135716 95.1393476 116.67461366 95.09765625 129.640625 C95.11376953 130.63900391 95.12988281 131.63738281 95.14648438 132.66601562 C95.15053617 138.82879227 94.43734914 143.63881052 91.78515625 149.203125 C91.04265625 150.83701172 91.04265625 150.83701172 90.28515625 152.50390625 C89.54265625 153.99470703 89.54265625 153.99470703 88.78515625 155.515625 C88.29015625 156.52238281 87.79515625 157.52914062 87.28515625 158.56640625 C85.95433155 160.90574655 84.87895947 162.53604798 82.78515625 164.203125 C82.12515625 164.203125 81.46515625 164.203125 80.78515625 164.203125 C80.78515625 164.863125 80.78515625 165.523125 80.78515625 166.203125 C80.12515625 166.203125 79.46515625 166.203125 78.78515625 166.203125 C78.78515625 166.863125 78.78515625 167.523125 78.78515625 168.203125 C53.53722675 187.59080007 19.68243956 188.08071817 -10.57519531 184.56689453 C-24.29285113 182.67646657 -39.07212745 177.60946628 -50.21484375 169.203125 C-50.21484375 168.543125 -50.21484375 167.883125 -50.21484375 167.203125 C-50.80394531 166.94789063 -51.39304687 166.69265625 -52 166.4296875 C-55.94448839 164.24526183 -58.44313253 160.69273439 -61.21484375 157.203125 C-61.91867187 156.32333984 -61.91867187 156.32333984 -62.63671875 155.42578125 C-68.48948003 147.17049759 -71.37352945 134.49146315 -71.33984375 124.453125 C-71.34242187 123.67453125 -71.345 122.8959375 -71.34765625 122.09375 C-71.21484375 120.203125 -71.21484375 120.203125 -70.21484375 119.203125 C-67.18506571 119.11441227 -64.17817353 119.0879315 -61.1484375 119.10546875 C-60.23981461 119.1068837 -59.33119171 119.10829865 -58.39503479 119.10975647 C-55.48077154 119.11537307 -52.56658394 119.12792835 -49.65234375 119.140625 C-47.68164173 119.14563786 -45.71093851 119.15020114 -43.74023438 119.15429688 C-38.89840816 119.16534789 -34.0566388 119.18262362 -29.21484375 119.203125 C-29.16223389 120.01716797 -29.10962402 120.83121094 -29.05541992 121.66992188 C-28.97783447 122.74306641 -28.90024902 123.81621094 -28.8203125 124.921875 C-28.71046021 126.51418945 -28.71046021 126.51418945 -28.59838867 128.13867188 C-27.8898065 133.80011259 -25.88823462 137.61554904 -21.77734375 141.515625 C-3.35677524 150.24115745 24.99489094 149.54186559 44.3828125 144.08984375 C47.44221376 142.96060133 49.59168858 141.62350311 51.78515625 139.203125 C52.7035242 136.44802115 52.94832316 134.67996312 52.97265625 131.828125 C52.98683594 131.07789063 53.00101563 130.32765625 53.015625 129.5546875 C52.66168028 125.9432515 51.91584219 123.17341131 49.10546875 120.76171875 C43.47706522 117.88742727 37.8822427 116.42840939 31.7265625 115.23828125 C30.41820686 114.98129456 30.41820686 114.98129456 29.0834198 114.71911621 C18.42101 112.67785789 7.67238984 111.26947454 -3.08666992 109.84863281 C-12.30923839 108.62242846 -21.4657966 107.31581104 -30.5390625 105.23046875 C-31.20584518 105.08017212 -31.87262787 104.92987549 -32.55961609 104.77502441 C-39.67771116 103.04808413 -45.89911643 99.86574626 -52.21484375 96.203125 C-53.29185547 95.58630859 -53.29185547 95.58630859 -54.390625 94.95703125 C-62.74551528 89.60323238 -68.0754979 80.41360248 -71.21484375 71.203125 C-74.09427802 55.71937469 -72.46544284 41.73205766 -64.21484375 28.203125 C-51.41635226 11.16835524 -32.38607966 4.06586515 -11.99316406 0.66601562 C-7.98241555 0.17464969 -4.03395215 0.02371178 0 0 Z " fill="#C5CBD3" transform="translate(1628.21484375,743.796875)"/>
<path d="M0 0 C13.53 0 27.06 0 41 0 C41.01458252 3.3299707 41.02916504 6.65994141 41.04418945 10.09082031 C41.09464471 21.12304375 41.16125908 32.15512766 41.23571491 43.1872139 C41.28053649 49.87251855 41.31961531 56.55776016 41.34643555 63.24316406 C41.37254449 69.70126386 41.41300084 76.15913232 41.46318626 82.61708832 C41.47980365 85.07446148 41.49134972 87.5318746 41.49761391 89.98929596 C41.50731072 93.44525608 41.53543724 96.90063112 41.56762695 100.35644531 C41.56619186 101.36058472 41.56475677 102.36472412 41.5632782 103.39929199 C41.70845284 114.50182843 43.60372486 125.60372486 51.6875 133.6875 C62.33705553 141.7811622 75.42738099 142.37533203 88.3125 142.3125 C90.09599854 142.30512817 90.09599854 142.30512817 91.91552734 142.29760742 C104.36714694 142.13132432 117.27230061 141.27705602 126.80859375 132.296875 C134.99980123 123.26101063 135.29362671 111.21825514 135.31884766 99.56176758 C135.32889328 98.47751495 135.3389389 97.39326233 135.34928894 96.27615356 C135.37990325 92.73228431 135.39709522 89.18848982 135.4140625 85.64453125 C135.43279166 83.17159898 135.45236635 80.69867299 135.4727478 78.22575378 C135.52389023 71.74697584 135.56361142 65.26817721 135.60089111 58.78930664 C135.6410433 52.16612711 135.69208431 45.54303228 135.7421875 38.91992188 C135.83873487 25.94666841 135.92219957 12.97337945 136 0 C149.53 0 163.06 0 177 0 C177.04528954 14.7696152 177.0820718 29.53918675 177.10362434 44.30885601 C177.11390118 51.16792489 177.12789206 58.02694729 177.15087891 64.88598633 C177.17307589 71.51254478 177.18458867 78.13906785 177.18975449 84.76566505 C177.19343319 87.28644378 177.20061652 89.80722005 177.21146011 92.32797813 C177.22610164 95.87455189 177.22797267 99.42092991 177.22705078 102.9675293 C177.23424133 103.99612564 177.24143188 105.02472198 177.24884033 106.08448792 C177.19271294 126.20338366 172.16797703 143.75418629 159 159 C158.46632813 159.63035156 157.93265625 160.26070312 157.3828125 160.91015625 C142.57071175 177.08555981 118.21631318 182.75388861 97.2421875 183.875 C96.17226562 183.91625 95.10234375 183.9575 94 184 C93.13632813 184.04125 92.27265625 184.0825 91.3828125 184.125 C65.72739143 184.76438744 38.33153585 178.93357918 18.97265625 161.125 C4.13013329 145.1362228 -0.18606469 125.56190527 -0.11352539 104.32983398 C-0.11367142 103.19710556 -0.11381744 102.06437714 -0.1139679 100.89732361 C-0.11327525 97.18022702 -0.10551335 93.46318151 -0.09765625 89.74609375 C-0.09578977 87.15820849 -0.09436695 84.57032287 -0.09336853 81.98243713 C-0.08994992 75.88409773 -0.08208093 69.78577918 -0.07201904 63.68744761 C-0.0608062 56.73936879 -0.05533447 49.79128906 -0.05032361 42.84320343 C-0.03989678 28.56212432 -0.02157211 14.28106652 0 0 Z " fill="#C5CBD3" transform="translate(1195,746)"/>
<path d="M0 0 C17.82 0 35.64 0 54 0 C54 77.55 54 155.1 54 235 C36.18 235 18.36 235 0 235 C0 157.45 0 79.9 0 0 Z " fill="#C5CBD3" transform="translate(1324,982)"/>
<path d="M0 0 C57.42 0 114.84 0 174 0 C174 12.54 174 25.08 174 38 C152.22 38 130.44 38 108 38 C108 85.19 108 132.38 108 181 C94.14 181 80.28 181 66 181 C66 133.81 66 86.62 66 38 C44.22 38 22.44 38 0 38 C0 25.46 0 12.92 0 0 Z " fill="#C5CBD3" transform="translate(1732,746)"/>
</svg>
